<svg width="64" height="64" viewBox="0 0 64 64" fill="none" xmlns="http://www.w3.org/2000/svg">
<g clip-path="url(#clip0_792_1633)">
<rect width="64" height="64" fill="#0A0A0A"/>
<path fill-rule="evenodd" clip-rule="evenodd" d="M49.3662 51.9928H36.371C34.9218 51.9928 33.7372 50.8082 33.7372 49.3592V39.6109C33.7372 33.7316 30.2628 30.2539 24.3793 30.2539H14.6338C13.1847 30.2539 12 29.0694 12 27.6204V14.6336C12 13.1918 13.1919 12 14.6338 12H27.629C29.0782 12 30.2628 13.1846 30.2628 14.6336V21.1324V24.3818C30.2628 30.2612 33.7372 33.7388 39.6207 33.7388H49.3662C50.8153 33.7388 52 34.9234 52 36.3724V49.3664C52 50.8046 50.8081 52 49.3662 52V51.9928ZM21.1296 33.7352C16.0902 33.7352 12 37.8214 12 42.864C12 47.9065 16.0866 51.9928 21.1296 51.9928C26.1726 51.9928 30.2592 47.9029 30.2592 42.864C30.2592 37.825 26.169 33.7352 21.1296 33.7352ZM42.8668 12C37.8237 12 33.7372 16.0898 33.7372 21.1288C33.7372 26.1677 37.8274 30.2576 42.8668 30.2576C47.9062 30.2576 51.9964 26.1677 51.9964 21.1288C51.9964 16.0898 47.9062 12 42.8668 12Z" fill="white"/>
</g>
<defs>
<clipPath id="clip0_792_1633">
<path d="M0 25.6C0 16.6392 0 12.1587 1.7439 8.73615C3.27787 5.72556 5.72556 3.27787 8.73615 1.7439C12.1587 0 16.6392 0 25.6 0H38.4C47.3608 0 51.8413 0 55.2638 1.7439C58.2744 3.27787 60.7221 5.72556 62.2561 8.73615C64 12.1587 64 16.6392 64 25.6V38.4C64 47.3608 64 51.8413 62.2561 55.2638C60.7221 58.2744 58.2744 60.7221 55.2638 62.2561C51.8413 64 47.3608 64 38.4 64H25.6C16.6392 64 12.1587 64 8.73615 62.2561C5.72556 60.7221 3.27787 58.2744 1.7439 55.2638C0 51.8413 0 47.3608 0 38.4V25.6Z" fill="white"/>
</clipPath>
</defs>
</svg>
